HIERARCHY
ROOT Hips
{
    OFFSET 0.000000 0.000000 0.000000
    CHANNELS 6 Xposition Yposition Zposition Zrotation Xrotation Yrotation
    JOINT Spine
    {
        OFFSET -0.000000 7.236184 0.000000
        CHANNELS 3 Zrotation Xrotation Yrotation
        JOINT Spine1
        {
            OFFSET -0.000000 20.420147 0.000000
            CHANNELS 3 Zrotation Xrotation Yrotation
            JOINT Neck
            {
                OFFSET -0.000000 20.336288 1.848754
                CHANNELS 3 Zrotation Xrotation Yrotation
                JOINT Head
                {
                    OFFSET -0.000000 12.354461 -1.764923
                    CHANNELS 3 Zrotation Xrotation Yrotation
                    End Site
                    {
                        OFFSET -0.000000 22.061537 0.000000
                    }
                }
            }
            JOINT LeftShoulder
            {
                OFFSET 3.573296 18.396038 -0.314103
                CHANNELS 3 Zrotation Xrotation Yrotation
                JOINT LeftArm
                {
                    OFFSET 10.880760 0.000000 0.000000
                    CHANNELS 3 Zrotation Xrotation Yrotation
                    JOINT LeftForeArm
                    {
                        OFFSET 27.185530 0.000000 0.000000
                        CHANNELS 3 Zrotation Xrotation Yrotation
                        JOINT LeftHand
                        {
                            OFFSET 27.825975 0.000000 0.000000
                            CHANNELS 3 Zrotation Xrotation Yrotation
                            End Site
                            {
                                OFFSET 13.236923 0.000000 0.000000
                            }
                        }
                    }
                }
            }
            JOINT RightShoulder
            {
                OFFSET -3.474926 18.396038 -0.314103
                CHANNELS 3 Zrotation Xrotation Yrotation
                JOINT RightArm
                {
                    OFFSET -10.880760 0.000000 0.000000
                    CHANNELS 3 Zrotation Xrotation Yrotation
                    JOINT RightForeArm
                    {
                        OFFSET -27.185530 0.000000 0.000000
                        CHANNELS 3 Zrotation Xrotation Yrotation
                        JOINT RightHand
                        {
                            OFFSET -27.825975 0.000000 0.000000
                            CHANNELS 3 Zrotation Xrotation Yrotation
                            End Site
                            {
                                OFFSET -13.236923 0.000000 0.000000
                            }
                        }
                    }
                }
            }
        }
    }
    JOINT LeftUpLeg
    {
        OFFSET 8.824615 0.000000 0.000000
        CHANNELS 3 Zrotation Xrotation Yrotation
        JOINT LeftLeg
        {
            OFFSET -0.000000 -35.111282 0.000000
            CHANNELS 3 Zrotation Xrotation Yrotation
            JOINT LeftFoot
            {
                OFFSET -0.000000 -42.324711 0.000000
                CHANNELS 3 Zrotation Xrotation Yrotation
                JOINT LeftToeBase
                {
                    OFFSET -0.000000 -5.735999 13.236923
                    CHANNELS 3 Zrotation Xrotation Yrotation
                    End Site
                    {
                        OFFSET -0.000000 0.000000 3.529846
                    }
                }
            }
        }
    }
    JOINT RightUpLeg
    {
        OFFSET -8.824615 0.000000 0.000000
        CHANNELS 3 Zrotation Xrotation Yrotation
        JOINT RightLeg
        {
            OFFSET -0.000000 -35.111282 0.000000
            CHANNELS 3 Zrotation Xrotation Yrotation
            JOINT RightFoot
            {
                OFFSET -0.000000 -42.324711 0.000000
                CHANNELS 3 Zrotation Xrotation Yrotation
                JOINT RightToeBase
                {
                    OFFSET -0.000000 -5.735999 13.236923
                    CHANNELS 3 Zrotation Xrotation Yrotation
                    End Site
                    {
                        OFFSET -0.000000 0.000000 3.529846
                    }
                }
            }
        }
    }
}
MOTION
Frames:    4
Frame Time:    0.008333
4.405265    83.534889    98.162804    1.167259    -9.969309    -173.408783    -1.249004    -18.577528    -0.055264    1.637743    8.966501    0.020942    2.354597    8.266592    -1.430416    2.930084    -17.076130    -0.821764    -3.202368    19.576757    0.979527    -40.499912    44.761852    -42.502365    0.132432    -2.533805    -17.219517    17.974285    -2.784202    -1.711520    8.075671    20.670706    -5.954278    40.039433    42.845802    38.967472    -0.952361    -8.392235    11.030268    -12.975112    -7.712640    -5.223508    7.344939    -10.896066    3.085515    -0.917075    11.556661    10.557625    -7.646019    -7.168198    -10.330353    -1.631522    -0.310134    1.809471    -5.645746    -6.088525    3.724191    2.210435    3.888525    -0.388919    0.008145    -5.902334    -11.389982    -2.019496    -0.881262    2.186865    
4.452493    83.535370    98.152527    1.164000    -9.980823    -173.334030    -1.289114    -18.517273    -0.085432    1.644730    8.957055    -0.003926    2.316205    8.240030    -1.405751    2.908519    -17.137470    -0.798522    -3.214253    19.574110    0.995454    -40.657619    44.638367    -42.331474    0.206896    -2.571784    -17.310211    18.063583    -2.797216    -1.617862    8.053551    20.701515    -5.973441    40.014904    42.961506    38.882454    -0.956845    -8.333512    11.239725    -13.038768    -7.662714    -5.100268    7.350007    -11.168378    3.143732    -0.914391    11.965301    10.718872    -7.627723    -7.156700    -10.425859    -1.603784    -0.391514    1.778970    -5.633967    -6.064572    3.651488    2.226310    3.854771    -0.424172    0.030490    -5.898618    -11.349636    -2.001902    -0.886345    2.167828    
4.499114    83.535805    98.142418    1.160005    -9.991622    -173.259293    -1.327642    -18.457317    -0.114853    1.648705    8.948126    -0.028281    2.280132    8.213510    -1.381867    2.886401    -17.196888    -0.776493    -3.224685    19.571541    1.010312    -40.812378    44.515068    -42.165188    0.278310    -2.606966    -17.397509    18.141182    -2.806777    -1.519492    8.033720    20.730774    -5.993568    39.992683    43.074234    38.796829    -0.963848    -8.276925    11.448199    -13.106854    -7.614588    -4.977200    7.353146    -11.437155    3.200283    -0.911459    12.368789    10.884213    -7.608433    -7.143489    -10.519689    -1.575391    -0.470650    1.747728    -5.623479    -6.038991    3.583700    2.242792    3.819195    -0.463962    0.051002    -5.894154    -11.309857    -1.985174    -0.890295    2.149726    
4.545066    83.536171    98.132553    1.154659    -10.001526    -173.183792    -1.364256    -18.397577    -0.143688    1.647990    8.939802    -0.051885    2.247756    8.187522    -1.359071    2.863013    -17.254036    -0.756248    -3.233199    19.568933    1.023287    -40.964432    44.391232    -42.004154    0.345133    -2.637064    -17.478935    18.197521    -2.810060    -1.412513    8.017260    20.757355    -6.014788    39.976524    43.179939    38.707973    -0.973529    -8.222832    11.656116    -13.182700    -7.568661    -4.852666    7.353408    -11.702261    3.253803    -0.909970    12.766621    11.060532    -7.586665    -7.127240    -10.612049    -1.545452    -0.547420    1.714754    -5.615202    -6.010743    3.522988    2.260313    3.780520    -0.510958    0.068262    -5.888601    -11.271055    -1.970024    -0.891696    2.133326    
